<!DOCTYPE svg PUBLIC "-//W3C//DTD SVG 1.1//EN" "http://www.w3.org/Graphics/SVG/1.1/DTD/svg11.dtd">
<!-- Uploaded to: SVG Repo, www.svgrepo.com, Transformed by: SVG Repo Mixer Tools -->
<svg fill="#163D64" height="800px" width="800px" version="1.1" id="Layer_1" xmlns="http://www.w3.org/2000/svg" xmlns:xlink="http://www.w3.org/1999/xlink" viewBox="0 0 512 512" xml:space="preserve" stroke="#163D64">
<g id="SVGRepo_bgCarrier" stroke-width="0"/>
<g id="SVGRepo_tracerCarrier" stroke-linecap="round" stroke-linejoin="round"/>
<g id="SVGRepo_iconCarrier"> <g> <g> <g> <path d="M486.4,0H110.933c-14.114,0-25.6,11.486-25.6,25.6v25.6H25.6C11.486,51.2,0,62.686,0,76.8v409.6 C0,500.514,11.486,512,25.6,512h324.267c14.114,0,25.6-11.486,25.6-25.6v-384c0-18.825,15.309-34.133,34.133-34.133 c18.825,0,34.133,15.309,34.133,34.133v298.667c0,18.825,15.309,34.133,34.133,34.133S512,419.891,512,401.067V25.6 C512,11.486,500.514,0,486.4,0z M187.733,93.867c56.465,0,102.4,45.935,102.4,102.4s-45.935,102.4-102.4,102.4 s-102.4-45.935-102.4-102.4S131.268,93.867,187.733,93.867z M51.2,324.267h153.6c4.719,0,8.533,3.823,8.533,8.533 c0,4.71-3.814,8.533-8.533,8.533H51.2c-4.719,0-8.533-3.823-8.533-8.533C42.667,328.09,46.481,324.267,51.2,324.267z M51.2,366.933h102.4c4.719,0,8.533,3.823,8.533,8.533S158.319,384,153.6,384H51.2c-4.719,0-8.533-3.823-8.533-8.533 S46.481,366.933,51.2,366.933z M221.867,409.6c4.719,0,8.533,3.823,8.533,8.533s-3.814,8.533-8.533,8.533H153.6 c-4.719,0-8.533-3.823-8.533-8.533s3.814-8.533,8.533-8.533H221.867z M51.2,409.6h51.2c4.719,0,8.533,3.823,8.533,8.533 s-3.814,8.533-8.533,8.533H51.2c-4.719,0-8.533-3.823-8.533-8.533S46.481,409.6,51.2,409.6z M170.667,469.333H51.2 c-4.719,0-8.533-3.823-8.533-8.533s3.814-8.533,8.533-8.533h119.467c4.719,0,8.533,3.823,8.533,8.533 S175.386,469.333,170.667,469.333z M324.267,469.333h-102.4c-4.719,0-8.533-3.823-8.533-8.533s3.814-8.533,8.533-8.533h102.4 c4.719,0,8.533,3.823,8.533,8.533S328.986,469.333,324.267,469.333z M324.267,426.667h-51.2c-4.719,0-8.533-3.823-8.533-8.533 s3.814-8.533,8.533-8.533h51.2c4.719,0,8.533,3.823,8.533,8.533S328.986,426.667,324.267,426.667z M324.267,384H204.8 c-4.719,0-8.533-3.823-8.533-8.533s3.814-8.533,8.533-8.533h119.467c4.719,0,8.533,3.823,8.533,8.533S328.986,384,324.267,384z M324.267,341.333H256c-4.719,0-8.533-3.823-8.533-8.533c0-4.71,3.814-8.533,8.533-8.533h68.267c4.719,0,8.533,3.823,8.533,8.533 C332.8,337.51,328.986,341.333,324.267,341.333z M494.933,401.067c0,9.412-7.654,17.067-17.067,17.067 s-17.067-7.654-17.067-17.067V102.4c0-28.237-22.963-51.2-51.2-51.2H102.4V25.6c0-4.702,3.823-8.533,8.533-8.533H486.4 c4.71,0,8.533,3.831,8.533,8.533V401.067z"/> <path d="M409.6,93.867c-4.719,0-8.533,3.823-8.533,8.533v375.467c0,4.71,3.814,8.533,8.533,8.533s8.533-3.823,8.533-8.533V102.4 C418.133,97.69,414.319,93.867,409.6,93.867z"/> <path d="M179.2,187.733V113.69c-14.694,8.602-31.548,37.146-33.852,74.044H179.2z"/> <path d="M226.317,272.279c25.293-12.894,43.375-37.956,46.319-67.482h-25.446C245.73,230.756,237.769,254.939,226.317,272.279z"/> <path d="M179.2,278.844V204.8h-33.852C147.652,241.698,164.506,270.242,179.2,278.844z"/> <path d="M149.15,120.254c-25.293,12.894-43.375,37.956-46.319,67.482h25.446C129.737,161.778,137.698,137.594,149.15,120.254z"/> <path d="M272.633,187.733c-2.944-29.517-21.026-54.588-46.319-67.482c11.452,17.348,19.413,41.523,20.872,67.482H272.633z"/> <path d="M149.15,272.279c-11.452-17.34-19.413-41.523-20.873-67.482h-25.446C105.775,234.323,123.857,259.385,149.15,272.279z"/> <path d="M196.267,113.69v74.044h33.852C227.814,150.835,210.961,122.291,196.267,113.69z"/> <path d="M196.268,204.8v74.044c14.694-8.602,31.539-37.146,33.852-74.044H196.268z"/> </g> </g> </g> </g>
</svg>